
        <svg xmlns="http://www.w3.org/2000/svg" xmlns:xlink="http://www.w3.org/1999/xlink" version="1.1" width="3300" 
        height="2892.4381569137663" viewBox="0 0 3300 2892.4381569137663">
			
			<g transform="scale(15) translate(10, 10)">
				<defs id="SvgjsDefs1600"></defs><g id="SvgjsG1601" featureKey="symbolFeature-0" transform="matrix(1,0,0,1,50,-3.3677968978881836)" fill="#f8b500"><g xmlns="http://www.w3.org/2000/svg"><path d="M35.125,72.973c0,0.942,0.761,1.705,1.703,1.705h15.826l-16.359,5.46c-0.899,0.292-1.381,1.265-1.089,2.153   c0.241,0.722,0.913,1.173,1.622,1.173c0.178,0,0.365-0.032,0.544-0.085l26.336-8.785c0.795-0.262,1.288-1.066,1.15-1.894   c-0.136-0.825-0.847-1.433-1.684-1.433H36.827C35.886,71.268,35.125,72.029,35.125,72.973z"></path><path d="M61.959,89.331c-0.029,0.031-3.981,3.89-11.953,3.89c-4.3,0-7.426-1.107-9.394-2.144l23.094-7.698   c0.9-0.303,1.38-1.275,1.089-2.164c-0.306-0.899-1.267-1.382-2.167-1.077l-26.334,8.774c-0.566,0.188-0.994,0.659-1.129,1.233   c-0.137,0.577,0.04,1.183,0.459,1.6c0.199,0.199,4.998,4.887,14.381,4.887c9.37,0,14.172-4.688,14.372-4.887   c0.669-0.668,0.669-1.756,0-2.414C63.707,88.662,62.629,88.662,61.959,89.331z"></path><path d="M50.006,5.418c-15.471,0-28.051,12.581-28.051,28.04c0,7.771,4.182,13.984,7.865,19.456   c2.844,4.213,5.305,7.854,5.305,11.284c0,0.941,0.761,1.704,1.703,1.704s1.716-0.763,1.716-1.704c0-4.476-2.868-8.713-5.89-13.199   c-3.587-5.313-7.289-10.804-7.289-17.541c0-13.575,11.055-24.63,24.642-24.63c13.577,0,24.63,11.056,24.63,24.63   c0,6.737-3.713,12.227-7.289,17.541c-3.023,4.486-5.878,8.724-5.878,13.199c0,0.941,0.762,1.704,1.704,1.704   c0.941,0,1.706-0.763,1.706-1.704c0-3.43,2.457-7.071,5.301-11.284c3.683-5.472,7.866-11.684,7.866-19.456   C78.047,17.999,65.463,5.418,50.006,5.418z"></path><path d="M51.71,15.897c0-0.941-0.764-1.705-1.704-1.705c-10.627,0-19.276,8.65-19.276,19.265c0,0.953,0.764,1.716,1.704,1.716   c0.952,0,1.716-0.763,1.716-1.716c0-8.732,7.112-15.845,15.856-15.845C50.946,17.612,51.71,16.838,51.71,15.897z"></path><path d="M20.584,14.203c0.304,0.219,0.66,0.324,1.005,0.324c0.533,0,1.046-0.24,1.38-0.701c0.554-0.763,0.386-1.83-0.376-2.385   l-10.658-7.75c-0.764-0.554-1.83-0.377-2.385,0.387C8.996,4.832,9.164,5.897,9.927,6.463L20.584,14.203z"></path><path d="M78.412,14.527c0.347,0,0.702-0.105,1.007-0.324l10.656-7.74c0.764-0.566,0.932-1.631,0.375-2.385   c-0.554-0.764-1.621-0.941-2.385-0.387l-10.658,7.75c-0.762,0.555-0.929,1.622-0.375,2.385   C77.368,14.287,77.88,14.527,78.412,14.527z"></path><path d="M98.297,31.753h-13.17c-0.951,0-1.714,0.763-1.714,1.704c0,0.953,0.763,1.716,1.714,1.716h13.17   c0.939,0,1.703-0.763,1.703-1.716C100,32.517,99.236,31.753,98.297,31.753z"></path><path d="M16.59,33.458c0-0.941-0.764-1.704-1.706-1.704H1.705C0.765,31.753,0,32.517,0,33.458c0,0.953,0.765,1.716,1.705,1.716   h13.179C15.826,35.173,16.59,34.41,16.59,33.458z"></path><path d="M79.419,52.724c-0.767-0.554-1.834-0.388-2.387,0.377c-0.554,0.764-0.387,1.83,0.375,2.384l10.658,7.74   c0.305,0.221,0.661,0.335,1.005,0.335c0.524,0,1.047-0.251,1.38-0.711c0.557-0.764,0.389-1.831-0.375-2.385L79.419,52.724z"></path><path d="M20.584,52.724l-10.657,7.74c-0.764,0.554-0.931,1.621-0.377,2.385c0.337,0.46,0.857,0.711,1.38,0.711   c0.355,0,0.701-0.114,1.005-0.335l10.658-7.74c0.763-0.554,0.93-1.62,0.376-2.384C22.414,52.336,21.347,52.17,20.584,52.724z"></path></g></g><g id="SvgjsG1602" featureKey="fiAKjI-0" transform="matrix(2.9027576446533203,0,0,2.9027576446533203,-0.23221969090211886,95.46734585993516)" fill="#111111"><path d="M9.24 20 l-2.88 -4.54 l-2.84 4.54 l-3.44 0 l4.6 -6.88 l-4.46 -6.82 l3.6 0 l2.76 4.38 l2.74 -4.38 l3.46 0 l-4.5 6.74 l4.56 6.96 l-3.6 0 z M21.479999999999997 14.9 l-1.78 -5.36 l-1.78 5.36 l3.56 0 z M23.18 20 l-0.78 -2.36 l-5.38 0 l-0.78 2.36 l-3.18 0 l4.84 -13.7 l3.8 0 l4.82 13.7 l-3.34 0 z M27.48 20 l0 -13.7 l5.64 0 c3.06 0 4.42 1.7 4.42 3.72 c0 1.22 -0.58 2.2 -1.72 2.78 c1.72 0.52 2.64 1.68 2.64 3.28 c0 2.24 -1.58 3.92 -4.82 3.92 l-6.16 0 z M32.9 8.96 l-2.32 0 l0 2.8 l2.32 0 c1.06 0 1.6 -0.6 1.6 -1.42 c0 -0.8 -0.54 -1.38 -1.6 -1.38 z M33.46 14.379999999999999 l-2.88 0 l0 2.96 l2.9 0 c1.2 0 1.88 -0.6 1.88 -1.44 c0 -0.9 -0.68 -1.52 -1.9 -1.52 z M42.82 20 l-3.1 0 l0 -13.7 l3.1 0 l0 13.7 z M49.46 20.26 c-3.46 0 -5.36 -1.72 -5.54 -4.54 l3.1 0 c0.06 1.04 0.66 2.08 2.52 2.08 c1.56 0 2.36 -0.62 2.36 -1.48 c0 -1.06 -1.34 -1.34 -2.9 -1.68 c-2.18 -0.52 -4.84 -1.16 -4.84 -4.42 c0 -2.4 1.86 -4.18 5.14 -4.18 c3.34 0 5.18 1.82 5.38 4.5 l-3.12 0 c-0.06 -1.1 -0.66 -1.98 -2.34 -1.98 c-1.24 0 -2.06 0.5 -2.06 1.4 c0 1.16 1.36 1.48 2.92 1.84 c2.24 0.5 4.92 1.06 4.92 4.14 c0 2.5 -1.96 4.32 -5.54 4.32 z M63.94 14.9 l-1.78 -5.36 l-1.78 5.36 l3.56 0 z M65.64 20 l-0.78 -2.36 l-5.38 0 l-0.78 2.36 l-3.18 0 l4.84 -13.7 l3.8 0 l4.82 13.7 l-3.34 0 z"></path></g><g id="SvgjsG1603" featureKey="sloganFeature-0" transform="matrix(0.6131395697593689,0,0,0.6131395697593689,18.95766295846916,160.44379025538322)" fill="#f8b500"><path d="M7 6 c3.28 0 4.82 2.48 4.82 5.1 s-1.54 5.1 -4.82 5.1 l-3.5 0 l0 3.8 l-1.8 0 l0 -14 l5.3 0 z M6.92 14.48 c1.84 0 3.06 -1.42 3.06 -3.38 s-1.22 -3.38 -3.06 -3.38 l-3.42 0 l0 6.76 l3.42 0 z M26.397 18.28 l0.12 1.72 l-8.52 0 l0 -14 l8.12 0 l0.14 1.72 l-6.46 0 l0 3.42 l4.38 0 l0 1.72 l-4.38 0 l0 5.42 l6.6 0 z M39.094 20.2 c-4 0 -7.18 -3.2 -7.18 -7.2 s3.18 -7.2 7.18 -7.2 s7.18 3.2 7.18 7.2 s-3.18 7.2 -7.18 7.2 z M39.094 18.48 c3.04 0 5.32 -2.38 5.32 -5.48 s-2.28 -5.48 -5.32 -5.48 c-3.06 0 -5.34 2.38 -5.34 5.48 s2.28 5.48 5.34 5.48 z M57.771 6 c3.28 0 4.82 2.48 4.82 5.1 s-1.54 5.1 -4.82 5.1 l-3.5 0 l0 3.8 l-1.8 0 l0 -14 l5.3 0 z M57.691 14.48 c1.84 0 3.06 -1.42 3.06 -3.38 s-1.22 -3.38 -3.06 -3.38 l-3.42 0 l0 6.76 l3.42 0 z M70.568 18.28 l5.92 0 l-0.12 1.72 l-7.6 0 l0 -14 l1.8 0 l0 12.28 z M90.425 18.28 l0.12 1.72 l-8.52 0 l0 -14 l8.12 0 l0.14 1.72 l-6.46 0 l0 3.42 l4.38 0 l0 1.72 l-4.38 0 l0 5.42 l6.6 0 z M96.022 6 l1.3 0 l0 4.18 l-1.3 0 l0 -4.18 z M102.819 18.54 c0.88 0.82 2.7 1.66 4.52 1.66 c2.8 0 4.58 -1.44 4.58 -3.7 c0 -1.84 -0.88 -2.92 -3.92 -4.64 c-2.32 -1.34 -2.88 -1.78 -2.88 -2.66 c0 -0.94 0.88 -1.68 2.36 -1.68 c0.86 0 2 0.38 2.66 0.8 l0.96 -1.44 c-0.94 -0.62 -2.42 -1.08 -3.6 -1.08 c-2.58 0 -4.3 1.48 -4.3 3.42 c0 1.72 0.86 2.58 3.5 4.02 c2.34 1.28 3.3 2.22 3.3 3.24 c0 1.2 -1.04 1.92 -2.66 1.92 c-1.4 0 -2.8 -0.66 -3.5 -1.3 z M127.513 13 c0 -4.04 3.18 -7.2 7.18 -7.2 c1.68 0 3.28 0.56 4.7 1.64 l-0.9 1.4 c-1.18 -0.9 -2.4 -1.34 -3.8 -1.34 c-3.02 0 -5.38 2.42 -5.38 5.5 s2.38 5.5 5.38 5.5 c1.52 0 2.82 -0.48 3.8 -1.42 l0.92 1.38 c-1.22 1.1 -2.94 1.74 -4.72 1.74 c-4 0 -7.18 -3.18 -7.18 -7.2 z M151.99 20.2 c-4 0 -7.18 -3.2 -7.18 -7.2 s3.18 -7.2 7.18 -7.2 s7.18 3.2 7.18 7.2 s-3.18 7.2 -7.18 7.2 z M151.99 18.48 c3.04 0 5.32 -2.38 5.32 -5.48 s-2.28 -5.48 -5.32 -5.48 c-3.06 0 -5.34 2.38 -5.34 5.48 s2.28 5.48 5.34 5.48 z M178.74700000000004 5.800000000000001 l0.22 0 l0 14.2 l-1.78 0 l0 -9.42 l-4.96 6.48 l-0.12 0 l-4.96 -6.46 l0 9.4 l-1.78 0 l0 -14.2 l0.2 0 l6.6 8.4 z M199.08400000000003 5.800000000000001 l0.22 0 l0 14.2 l-1.78 0 l0 -9.42 l-4.96 6.48 l-0.12 0 l-4.96 -6.46 l0 9.4 l-1.78 0 l0 -14.2 l0.2 0 l6.6 8.4 z M214.441 18.28 l0.12 1.72 l-8.52 0 l0 -14 l8.12 0 l0.14 1.72 l-6.46 0 l0 3.42 l4.38 0 l0 1.72 l-4.38 0 l0 5.42 l6.6 0 z M230.698 11.06 c0 2.26 -1.06 4.2 -3.24 4.84 l3.02 4.1 l-2.16 0 l-2.86 -3.88 l-3.14 0 l0 3.88 l-1.8 0 l0 -14 l5.28 0 c3.3 0 4.9 2.28 4.9 5.06 z M222.318 7.68 l0 6.74 l3.4 0 c2.26 0 3.18 -1.66 3.18 -3.36 s-0.92 -3.38 -3.18 -3.38 l-3.4 0 z M236.275 13 c0 -4.04 3.18 -7.2 7.18 -7.2 c1.68 0 3.28 0.56 4.7 1.64 l-0.9 1.4 c-1.18 -0.9 -2.4 -1.34 -3.8 -1.34 c-3.02 0 -5.38 2.42 -5.38 5.5 s2.38 5.5 5.38 5.5 c1.52 0 2.82 -0.48 3.8 -1.42 l0.92 1.38 c-1.22 1.1 -2.94 1.74 -4.72 1.74 c-4 0 -7.18 -3.18 -7.18 -7.2 z M262.53200000000004 18.28 l0.12 1.72 l-8.52 0 l0 -14 l8.12 0 l0.14 1.72 l-6.46 0 l0 3.42 l4.38 0 l0 1.72 l-4.38 0 l0 5.42 l6.6 0 z"></path></g>
			</g>
		</svg>
	